<svg xmlns="http://www.w3.org/2000/svg" viewBox="0 0 53.58 28.18"><defs><style>.cls-1{fill:#1b1464;}.cls-2{fill:#fff;}</style></defs><g id="Layer_2" data-name="Layer 2"><g id="Layer_1-2" data-name="Layer 1"><path class="cls-1" d="M53.58,20.75c0-12.14-8.66-21.7-14-20.67s-8.39,17.5-5.4,24.39C36.72,31.13,53.24,28.16,53.58,20.75Z"/><path class="cls-2" d="M43.15,20.43c3.86,0,3.86-6,0-6s-3.87,6,0,6Z"/><path class="cls-1" d="M0,20.75C0,8.61,8.67-.95,14,.08s8.4,17.5,5.4,24.39C16.87,31.13.34,28.16,0,20.75Z"/><path class="cls-2" d="M11.65,21.38c3.86,0,3.86-6,0-6s-3.87,6,0,6Z"/></g></g></svg>