<svg xmlns="http://www.w3.org/2000/svg" viewBox="0 0 53.58 28.18"><defs><style>.cls-1{fill:#1b1464;}.cls-2{fill:#fff;}</style></defs><g id="Layer_2" data-name="Layer 2"><g id="Layer_1-2" data-name="Layer 1"><path class="cls-1" d="M33,20.75c0-12.14,8.67-21.7,14-20.67s8.39,17.5,5.39,24.39C49.83,31.13,33.3,28.16,33,20.75Z"/><path class="cls-2" d="M43.4,20.43c3.86,0,3.87-6,0-6s-3.87,6,0,6Z"/><path class="cls-1" d="M20.62,20.75C20.66,8.61,12-.95,6.58.08s-8.39,17.5-5.4,24.39C3.75,31.13,20.28,28.16,20.62,20.75Z"/><path class="cls-2" d="M9,21.38c3.86,0,3.86-6,0-6s-3.87,6,0,6Z"/></g></g></svg>