<svg xmlns="http://www.w3.org/2000/svg" viewBox="0 0 89.21 63.71"><defs><style>.cls-1{fill:#4814e4;}.cls-2{fill:#fff;}.cls-3,.cls-4{fill:none;stroke:#4814e4;stroke-miterlimit:10;}.cls-3{stroke-width:5px;}.cls-4{stroke-width:2px;}</style></defs><g id="Layer_2" data-name="Layer 2"><g id="Layer_1-2" data-name="Layer 1"><path class="cls-1" d="M52,32.91c0-12.14,8.67-21.7,14-20.67s8.4,17.5,5.4,24.4C68.85,43.29,52.32,40.32,52,32.91Z"/><path class="cls-2" d="M62.42,32.59c3.86,0,3.87-6,0-6s-3.87,6,0,6Z"/><path class="cls-1" d="M39.64,32.91c0-12.14-8.67-21.7-14-20.67s-8.4,17.5-5.4,24.4C22.77,43.29,39.3,40.32,39.64,32.91Z"/><path class="cls-2" d="M28,33.54c3.87,0,3.87-6,0-6s-3.86,6,0,6Z"/><rect class="cls-3" x="2.5" y="2.5" width="84.21" height="58.71" rx="14.89"/><rect class="cls-4" x="35.42" y="47.61" width="20.89" height="4.35" rx="2.18"/></g></g></svg>